<?xml version="1.0" encoding="UTF-8"?>
<svg width="24px" height="24px" viewBox="0 0 24 24" version="1.1" xmlns="http://www.w3.org/2000/svg" xmlns:xlink="http://www.w3.org/1999/xlink">
    <title>icon_6</title>
    <g id="页面-1" stroke="none" stroke-width="1" fill="none" fill-rule="evenodd">
        <g id="页面1（绿）" transform="translate(-44.000000, -566.000000)" fill-rule="nonzero">
            <g id="预约咨询" transform="translate(16.000000, 391.000000)">
                <g id="编组-8" transform="translate(12.000000, 79.000000)">
                    <g id="编组-6" transform="translate(16.000000, 96.000000)">
                        <g id="医保-(1)">
                            <rect id="矩形" fill="#26B384" opacity="0.196056545" x="0" y="0" width="24" height="24"></rect>
                            <g id="编组-7" transform="translate(6.000000, 5.000000)">
                                <rect x="0" y="0" width="12" height="15"></rect>
                                <rect x="0" y="0" width="12" height="15"></rect>
                                <rect x="0" y="0" width="12" height="15"></rect>
                                <path d="M0,3.11577535 L0,9.0744648 C0,10.1598034 0.505110383,11.1792898 1.35890985,11.8167734 L5.31595325,14.7715759 C5.72389269,15.0761414 6.27610731,15.0761414 6.68404675,14.7715759 L10.6410904,11.8167734 C11.4946642,11.1793623 12,10.15977 12,9.0744648 L12,3.11577535 C12,2.72310257 11.7712927,2.36884332 11.4199381,2.21640801 L6.59398603,0.123473614 C6.21435833,-0.0411578715 5.7862339,-0.0411578715 5.40660667,0.123473614 L0.58065474,2.21640801 C0.229127377,2.36885381 0.000577241532,2.7232132 0.000592521043,3.11577535 L0,3.11577535 Z" id="路径" fill="#26B384"></path>
                                <path d="M6.60000014,3.72298831 L6.60000014,8.27701187 C6.60000014,8.75900412 6.4000001,9 6.00000012,9 C5.6000001,9 5.4000001,8.75900412 5.4000001,8.27701187 L5.4000001,3.72298831 C5.4000001,3.24099609 5.6000001,3 6.00000012,3 C6.4000001,3 6.60000014,3.24099611 6.60000014,3.72298831 Z" id="路径" fill="#FFFFFF"></path>
                                <path d="M5.30000019,10.8 C5.2999372,11.0857915 5.45240255,11.3499006 5.69994929,11.4928145 C5.947496,11.6357285 6.25250435,11.6357285 6.50005114,11.4928145 C6.74759781,11.3499006 6.90006316,11.0857915 6.90000021,10.8 C6.90006316,10.5142086 6.74759781,10.2500994 6.50005114,10.1071854 C6.25250435,9.96427152 5.947496,9.96427152 5.69994929,10.1071854 C5.45240255,10.2500994 5.2999372,10.5142086 5.30000019,10.8 Z" id="路径" fill="#FFFFFF"></path>
                            </g>
                        </g>
                    </g>
                </g>
            </g>
        </g>
    </g>
</svg>