<?xml version="1.0" encoding="UTF-8"?>
<svg width="24px" height="24px" viewBox="0 0 24 24" version="1.1" xmlns="http://www.w3.org/2000/svg" xmlns:xlink="http://www.w3.org/1999/xlink">
    <title>icon_10</title>
    <defs>
        <path d="M3.96000004,0 L3.96000004,1.39199996 L6.80800009,1.39199996 L6.80800009,5.48799992 L5.704,5.48799992 L5.704,5.06400013 L3.96000004,5.06400013 L3.96000004,7.5999999 L2.83200002,7.5999999 L2.83200002,5.06400013 L1.09599996,5.06400013 L1.09599996,5.51200008 L0,5.51200008 L0,1.39199996 L2.83200002,1.39199996 L2.83200002,0 L3.96000004,0 Z M5.93010187,2.41599989 L4.18610191,2.41599989 L4.18610191,4.04799986 L5.93010187,4.04799986 L5.93010187,2.41599989 Z M3.05810165,2.41599989 L1.32210171,2.41599989 L1.32210171,4.04799986 L3.05810165,4.04799986 L3.05810165,2.41599989 Z" id="path-1"></path>
    </defs>
    <g id="页面-1" stroke="none" stroke-width="1" fill="none" fill-rule="evenodd">
        <g id="页面2（绿）" transform="translate(-45.000000, -706.000000)" fill-rule="nonzero">
            <g id="编组-17" transform="translate(0.000000, 18.000000)">
                <g id="预约咨询" transform="translate(17.000000, 366.000000)">
                    <g id="编组-8" transform="translate(12.000000, 66.000000)">
                        <g id="特定疾病" transform="translate(15.573898, 256.000000)">
                            <g id="医保-(1)">
                                <rect id="矩形" fill="#26B384" opacity="0.196056545" x="0.426101685" y="0" width="24" height="24"></rect>
                                <g id="编组-6" transform="translate(5.426102, 0.000000)">
                                    <rect x="0" y="0" width="14.0000029" height="24"></rect>
                                    <rect x="0" y="0" width="14" height="24"></rect>
                                    <rect x="0" y="0" width="14.0000029" height="24"></rect>
                                    <path d="M13.0616102,5.65340316 C11.5703859,5.61102486 8.68465042,5.37529552 7.25223875,4.21783787 C6.92680931,3.95429774 6.47460651,3.92648698 6.12303829,4.15294607 C5.20294905,4.74491811 3.34316587,5.71829498 0.934465826,5.8255651 C0.412994683,5.8494029 0,6.27848315 0,6.80688787 C0,10.5149903 0.00392083544,10.8036923 0.00392083544,11.7797179 C0.00392083544,12.8179865 -0.168595925,17.3206825 6.65757895,19.9229755 C6.90328455,20.0170021 7.17251539,20.0315704 7.41560698,19.9295969 C13.0589962,17.5749521 14,15.0931721 14,12.2193928 L14,6.63472605 C14.0013037,6.10367274 13.5856953,5.66797066 13.0616102,5.65340316 L13.0616102,5.65340316 Z" id="形状" fill="#26B384"></path>
                                    <g id="中" transform="translate(3.473898, 8.000000)" fill="#FFFFFF">
                                        <g id="形状">
                                            <use xlink:href="#path-1"></use>
                                            <use xlink:href="#path-1"></use>
                                        </g>
                                    </g>
                                </g>
                            </g>
                        </g>
                    </g>
                </g>
            </g>
        </g>
    </g>
</svg>