<?xml version="1.0" encoding="UTF-8"?>
<svg width="24px" height="24px" viewBox="0 0 24 24" version="1.1" xmlns="http://www.w3.org/2000/svg" xmlns:xlink="http://www.w3.org/1999/xlink">
    <title>icon_11</title>
    <g id="页面-1" stroke="none" stroke-width="1" fill="none" fill-rule="evenodd">
        <g id="页面2（绿）" transform="translate(-45.000000, -746.000000)" fill-rule="nonzero">
            <g id="编组-17" transform="translate(0.000000, 18.000000)">
                <g id="预约咨询" transform="translate(17.000000, 366.000000)">
                    <g id="编组-8" transform="translate(12.000000, 66.000000)">
                        <g id="特定疾病" transform="translate(15.573898, 296.000000)">
                            <g id="医保-(1)">
                                <g id="编组-18">
                                    <rect id="矩形" fill="#26B384" opacity="0.196056545" x="0.426101685" y="0" width="24" height="24"></rect>
                                    <g id="编组-41" transform="translate(5.500000, 4.000000)">
                                        <rect x="0" y="0" width="13.1764708" height="16"></rect>
                                        <rect x="0" y="0" width="13.1764708" height="16"></rect>
                                        <rect x="0" y="0" width="13.1764708" height="16"></rect>
                                        <path d="M0,3.32349372 L0,9.67942905 C0,10.8371239 0.554630995,11.9245758 1.49213624,12.604558 L5.8371253,15.7563477 C6.2850585,16.0812168 6.89141178,16.0812168 7.33934546,15.7563477 L11.6843348,12.604558 C12.6215916,11.9246531 13.1764708,10.8370876 13.1764708,9.67942905 L13.1764708,3.32349372 C13.1764708,2.90464258 12.9253416,2.52676606 12.5395393,2.36416864 L7.24045515,0.131705195 C6.82360935,-0.0439017303 6.35351181,-0.0439017303 5.93666601,0.131705195 L0.637581646,2.36416864 C0.251590848,2.52677751 0.000633833813,2.90476084 0.000650611357,3.32349372 L0,3.32349372 Z" id="路径" fill="#26B384"></path>
                                        <path d="M5.60858011,9.4117651 L5.60109806,9.4117651 C5.35093832,9.40950298 5.12094784,9.29057932 4.98562145,9.09377432 L3.59396744,7.07304764 L2.83112764,7.65829253 C2.69905376,7.75944209 2.53249788,7.81534886 2.36138749,7.81534886 L0,7.81534886 L0,6.65196872 L2.22703671,6.65196872 L3.21726441,5.89189374 C3.38251925,5.76521468 3.59852171,5.71156991 3.80996966,5.74453235 C4.01491165,5.77652526 4.19740772,5.88898528 4.30996323,6.05282807 L5.61508608,7.94816804 L7.7201333,5.01289549 C7.87205076,4.80090179 8.13522243,4.68456379 8.40750217,4.709124 C8.6778307,4.73368424 8.90489292,4.88783211 9.0148468,5.1214776 L9.74905968,6.68202281 L13.1764708,6.68202281 L13.1764708,7.84540296 L9.4875145,7.84540296 C9.19376373,7.84540296 8.92701435,7.68220639 8.80827808,7.42981768 L8.26013947,6.26514494 L6.22373104,9.1047616 C6.08547688,9.29736567 5.8558116,9.4117651 5.60825443,9.4117651 L5.60858011,9.4117651 Z" id="路径" fill="#FFFFFF"></path>
                                    </g>
                                </g>
                            </g>
                        </g>
                    </g>
                </g>
            </g>
        </g>
    </g>
</svg>