<?xml version="1.0" encoding="UTF-8"?>
<svg width="37px" height="36px" viewBox="0 0 37 36" version="1.1" xmlns="http://www.w3.org/2000/svg" xmlns:xlink="http://www.w3.org/1999/xlink">
    <title>icon_plus1</title>
    <g id="页面-1" stroke="none" stroke-width="1" fill="none" fill-rule="evenodd">
        <g id="页面2（绿）" transform="translate(-307.000000, -806.000000)" fill-rule="nonzero">
            <g id="编组-17" transform="translate(0.000000, 18.000000)">
                <g id="预约咨询" transform="translate(17.000000, 366.000000)">
                    <g id="编组-8" transform="translate(12.000000, 66.000000)">
                        <g id="编组-13" transform="translate(3.573898, 344.000000)">
                            <g id="选取组" transform="translate(0.000000, 12.000000)">
                                <g id="编组-11" transform="translate(275.000000, 0.000000)">
                                    <rect id="Mask" fill="#F0F9F2" x="0" y="0" width="36" height="36"></rect>
                                    <g id="plus-circle-fill" transform="translate(6.426102, 6.000000)" fill="#26B384">
                                        <path d="M12,0 C18.6267853,0 24,5.37321472 24,12 C24,18.6267853 18.6267853,24 12,24 C5.37321472,24 0,18.6267853 0,12 C0,5.37321472 5.37321472,0 12,0 Z M12.6428576,6.85714293 L11.3571429,6.85714293 C11.2392859,6.85714293 11.1428571,6.9535715 11.1428571,7.07142864 L11.1428571,7.07142864 L11.1428571,11.1428571 L7.07142864,11.1428571 C6.9535715,11.1428571 6.85714293,11.2392859 6.85714293,11.3571429 L6.85714293,11.3571429 L6.85714293,12.6428576 C6.85714293,12.7607145 6.9535715,12.8571429 7.07142864,12.8571429 L7.07142864,12.8571429 L11.1428571,12.8571429 L11.1428571,16.9285722 C11.1428571,17.0464292 11.2392859,17.1428571 11.3571429,17.1428571 L11.3571429,17.1428571 L12.6428576,17.1428571 C12.7607145,17.1428571 12.8571429,17.0464292 12.8571429,16.9285722 L12.8571429,16.9285722 L12.8571429,12.8571429 L16.9285722,12.8571429 C17.0464292,12.8571429 17.1428571,12.7607145 17.1428571,12.6428576 L17.1428571,12.6428576 L17.1428571,11.3571429 C17.1428571,11.2392859 17.0464292,11.1428571 16.9285722,11.1428571 L16.9285722,11.1428571 L12.8571429,11.1428571 L12.8571429,7.07142864 C12.8571429,6.9535715 12.7607145,6.85714293 12.6428576,6.85714293 L12.6428576,6.85714293 Z" opacity="0.502999425" id="形状"></path>
                                    </g>
                                </g>
                            </g>
                        </g>
                    </g>
                </g>
            </g>
        </g>
    </g>
</svg>