<?xml version="1.0" encoding="UTF-8"?>
<svg width="22px" height="22px" viewBox="0 0 22 22" version="1.1" xmlns="http://www.w3.org/2000/svg" xmlns:xlink="http://www.w3.org/1999/xlink">
    <title>icon_3</title>
    <g id="页面-1" stroke="none" stroke-width="1" fill="none" fill-rule="evenodd">
        <g id="页面2（绿）" transform="translate(-29.000000, -397.000000)" fill-rule="nonzero">
            <g id="编组-17" transform="translate(0.000000, 18.000000)">
                <g id="预约咨询" transform="translate(17.000000, 366.000000)">
                    <g id="编组-9" transform="translate(12.000000, 12.000000)">
                        <g id="利益" transform="translate(0.000000, 1.000000)">
                            <rect id="矩形" x="0" y="0" width="22" height="22"></rect>
                            <g id="013_发票报销">
                                <path d="M17.2087631,17.0204582 C14.8074846,17.0175667 12.630044,15.5917854 11.6418171,13.3752422 C10.6535902,11.158699 11.0374384,8.56154251 12.6231823,6.73523092 C14.2089252,4.90891886 16.7031364,4.19139385 19,4.90077209 L19,2.7653594 C19,2.03194046 18.7123356,1.32856047 18.2002907,0.809955001 C17.6882458,0.29134953 16.993763,0 16.2696209,0 L2.73037839,0 C2.00621247,0 1.31168365,0.291242629 0.799621105,0.809865654 C0.287558496,1.32848859 0,2.03191566 0,2.7653594 L0,19.6625748 C0,20.5322971 0.909624159,21.0932999 1.67256391,20.6939793 L4.23698092,19.3517189 C4.56758881,19.1785736 4.9605732,19.1785736 5.29118109,19.3517189 L8.49986553,20.7854958 C9.13651752,21.0699005 9.86161709,21.0715599 10.4995327,20.7900715 L13.7651434,19.3498878 C14.0962639,19.1774731 14.4894962,19.1789513 14.8193436,19.3538551 L17.3193035,20.6793346 C18.0825443,21.0838432 18.9972897,20.5231457 18.9972897,19.6506767 L18.9972897,16.749567 C18.4177361,16.9294586 17.8149242,17.0207596 17.2087631,17.0204582 L17.2087631,17.0204582 Z" id="路径" fill="#26B384"></path>
                                <path d="M12,11 C12,13.7614236 14.2385762,16 17,16 C19.7614236,16 22,13.7614236 22,11 C22,8.23857617 19.7614236,6 17,6 C14.2385762,6 12,8.23857617 12,11 Z" id="路径" fill="#FDBF03"></path>
                                <path d="M7.6299105,11.4848714 C8.06961969,11.4848714 8.42607454,11.8625558 8.42607454,12.3284532 C8.42607454,12.7943505 8.06961969,13.172035 7.6299105,13.172035 L3.79616395,13.172035 C3.35645476,13.172035 3.00000003,12.7943505 3.00000003,12.3284532 C3.00000003,11.8625558 3.35645476,11.4848714 3.79616395,11.4848714 L7.6299105,11.4848714 Z M8.04188919,7.74243569 C8.48159838,7.74243569 8.83805323,8.12012014 8.83805323,8.58601749 C8.83805323,9.05191481 8.48159838,9.42959929 8.04188919,9.42959929 L3.79616398,9.42959929 C3.51172197,9.42959929 3.24888675,9.26881349 3.10666575,9.00780845 C2.96444475,8.74680328 2.96444475,8.4252317 3.10666575,8.16422659 C3.24888675,7.90322146 3.51172197,7.74243569 3.79616398,7.74243569 L8.04188919,7.74243569 Z M10.1961642,4 C10.6358734,4 10.9923277,4.37768444 10.9923277,4.8435818 C10.9923277,5.30947912 10.6358734,5.68716359 10.1961642,5.68716359 L3.79616395,5.68716359 C3.35645476,5.68716359 3.00000003,5.30947912 3.00000003,4.8435818 C3.00000003,4.37768444 3.35645476,4 3.79616395,4 L10.1961642,4 Z" id="形状" fill="#FFFFFF"></path>
                                <path d="M18.8852711,11.6359787 L17.5627704,11.6359787 L17.5627704,10.7095726 L18.8867188,10.7095726 C19.2065072,10.7095726 19.4657469,10.4348929 19.4657469,10.0960584 C19.4657469,9.75722408 19.2065072,9.48254442 18.8867188,9.48254442 L18.0838957,9.48254442 L18.5885191,8.94817376 C18.7348256,8.79315341 18.791965,8.56720632 18.7384129,8.35544461 C18.6848607,8.14368291 18.5287538,7.97827818 18.3288951,7.9215368 C18.1290364,7.86479542 17.9157901,7.92533776 17.7694833,8.0803581 L16.983742,8.91473722 L16.1956844,8.07974459 C16.0493778,7.92472425 15.8361313,7.86418191 15.6362728,7.92092329 C15.4364142,7.97766466 15.2803069,8.14306939 15.226755,8.3548311 C15.173203,8.56659281 15.2303423,8.79253989 15.3766488,8.94756019 L15.8798245,9.48254442 L15.0790283,9.48254442 C14.7592398,9.48254442 14.5,9.75722408 14.5,10.0960584 C14.5,10.4348929 14.7592398,10.7095726 15.0790283,10.7095726 L16.4047136,10.7095726 L16.4047136,11.6359787 L15.0790283,11.6359787 C14.7592398,11.6359787 14.5,11.9106584 14.5,12.2494926 C14.5,12.5883274 14.7592398,12.8630066 15.0790283,12.8630066 L16.4047136,12.8630066 L16.4047136,13.6418629 C16.4047136,13.9806972 16.6639535,14.2553768 16.983742,14.2553768 C17.3035305,14.2553768 17.5627704,13.9806972 17.5627704,13.6418629 L17.5627704,12.8630066 L18.8867188,12.8630066 C19.2065072,12.8630066 19.4657469,12.5883274 19.4657469,12.2494926 C19.4657469,11.9106584 19.2065072,11.6359787 18.8867188,11.6359787 L18.8852711,11.6359787 Z" id="路径" fill="#FFFFFF"></path>
                            </g>
                        </g>
                    </g>
                </g>
            </g>
        </g>
    </g>
</svg>