<?xml version="1.0" encoding="UTF-8"?>
<svg width="24px" height="24px" viewBox="0 0 24 24" version="1.1" xmlns="http://www.w3.org/2000/svg" xmlns:xlink="http://www.w3.org/1999/xlink">
    <title>icon_8</title>
    <defs>
        <path d="M1.12800002,0 L2.11999989,0.0719999969 L1.85599995,0.959999979 L3.13599992,0.959999979 L3.13599992,1.824 L1.59200001,1.824 L1.04799998,3.53600001 L1.62399995,3.53600001 L1.62399995,2.26399994 L2.37599993,2.26399994 L2.37599993,3.53600001 L3.02399993,3.53600001 L3.02399993,4.40799999 L2.37599993,4.40799999 L2.37599993,5.13600016 L3.11999989,5.06400013 C3.09866667,5.34666681 3.08266664,5.65600014 3.07200003,5.9920001 L2.37599993,6.05600023 L2.37599993,7.54400015 L1.40799999,7.54400015 L1.40799999,6.15199995 L0.064000003,6.296 L0,5.33599997 C0.30399999,5.31466675 0.773333311,5.27733326 1.40799999,5.22399998 L1.40799999,4.40799999 L0.112000003,4.40799999 L0.112000003,3.51200008 C0.330666661,2.82399988 0.504000008,2.26133323 0.632000029,1.824 L0.0399999991,1.824 L0.0399999991,0.959999979 L0.871999979,0.959999979 C0.989333332,0.533333361 1.07466662,0.213333338 1.12800002,0 Z M7.21600008,4.10400009 L7.21600008,5.04000008 L5.80799985,5.04000008 L5.80799985,6.3360002 L7.55999994,6.3360002 L7.55999994,7.28000021 L3.0079999,7.28000021 L3.0079999,6.3360002 L4.75999987,6.3360002 L4.75999987,5.04000008 L3.34399989,5.04000008 L3.34399989,4.10400009 L7.21600008,4.10400009 Z M6.94400001,0.423999995 L6.94400001,1.37600002 C6.65066671,1.80266663 6.4000001,2.12799999 6.19199991,2.35199997 C6.35733342,2.43733332 6.83466673,2.70133325 7.62400007,3.14400002 L7.03999996,3.93600008 C6.49600005,3.58933327 5.97066665,3.26933333 5.46399999,2.97600004 C4.97866666,3.31733343 4.31466663,3.63733336 3.472,3.93600008 C3.35466668,3.70133325 3.19733334,3.40533325 3,3.04800007 C3.74133331,2.81333324 4.31733334,2.56800005 4.72800004,2.31200001 C5.10666656,2.0773333 5.45333338,1.75733337 5.76799989,1.35199997 L3.39199999,1.35199997 L3.39199999,0.423999995 L6.94400001,0.423999995 Z" id="path-1"></path>
    </defs>
    <g id="页面-1" stroke="none" stroke-width="1" fill="none" fill-rule="evenodd">
        <g id="页面2（绿）" transform="translate(-45.000000, -626.000000)" fill-rule="nonzero">
            <g id="编组-17" transform="translate(0.000000, 18.000000)">
                <g id="预约咨询" transform="translate(17.000000, 366.000000)">
                    <g id="编组-8" transform="translate(12.000000, 66.000000)">
                        <g id="特定疾病" transform="translate(15.573898, 176.000000)">
                            <g id="医保-(1)">
                                <rect id="矩形" fill="#26B384" opacity="0.196056545" x="0.426101685" y="0" width="24" height="24"></rect>
                                <g id="编组-6" transform="translate(5.000000, 0.000000)">
                                    <rect x="0" y="0" width="14.0000029" height="24"></rect>
                                    <rect x="0" y="0" width="14" height="24"></rect>
                                    <rect x="0" y="0" width="14.0000029" height="24"></rect>
                                    <path d="M13.0616102,5.65340316 C11.5703859,5.61102486 8.68465042,5.37529552 7.25223875,4.21783787 C6.92680931,3.95429774 6.47460651,3.92648698 6.12303829,4.15294607 C5.20294905,4.74491811 3.34316587,5.71829498 0.934465826,5.8255651 C0.412994683,5.8494029 0,6.27848315 0,6.80688787 C0,10.5149903 0.00392083544,10.8036923 0.00392083544,11.7797179 C0.00392083544,12.8179865 -0.168595925,17.3206825 6.65757895,19.9229755 C6.90328455,20.0170021 7.17251539,20.0315704 7.41560698,19.9295969 C13.0589962,17.5749521 14,15.0931721 14,12.2193928 L14,6.63472605 C14.0013037,6.10367274 13.5856953,5.66797066 13.0616102,5.65340316 L13.0616102,5.65340316 Z" id="形状" fill="#26B384"></path>
                                    <g id="轻" transform="translate(3.000000, 8.000000)" fill="#FFFFFF">
                                        <g id="形状">
                                            <use xlink:href="#path-1"></use>
                                            <use xlink:href="#path-1"></use>
                                        </g>
                                    </g>
                                </g>
                            </g>
                        </g>
                    </g>
                </g>
            </g>
        </g>
    </g>
</svg>