<?xml version="1.0" encoding="UTF-8"?>
<svg width="24px" height="24px" viewBox="0 0 24 24" version="1.1" xmlns="http://www.w3.org/2000/svg" xmlns:xlink="http://www.w3.org/1999/xlink">
    <title>icon_4</title>
    <g id="页面-1" stroke="none" stroke-width="1" fill="none" fill-rule="evenodd">
        <g id="页面1（绿）" transform="translate(-44.000000, -486.000000)" fill-rule="nonzero">
            <g id="预约咨询" transform="translate(16.000000, 391.000000)">
                <g id="编组-8" transform="translate(12.000000, 79.000000)">
                    <g id="编组-6" transform="translate(16.000000, 16.000000)">
                        <g id="医保-(1)">
                            <rect id="矩形" fill="#26B384" opacity="0.196056545" x="0" y="0" width="24" height="24"></rect>
                            <g id="编组-5" transform="translate(6.597530, 6.171429)">
                                <path d="M4.13337892,0 L7.5237639,0 C7.99363542,0 8.22857165,0.22857143 8.22857165,0.685714304 L8.22857165,0.685714304 C8.22857165,1.14285719 7.99363542,1.37142861 7.5237639,1.37142861 L4.13337892,1.37142861 C3.66350728,1.37142861 3.42857146,1.14285719 3.42857146,0.685714304 L3.42857146,0.685714304 C3.42857146,0.22857143 3.66350728,0 4.13337892,0 Z" id="路径" fill="#26B384"></path>
                                <path d="M9.11277199,1 C8.99930763,1.43374437 8.58980274,1.75507516 8.10193443,1.75507516 L3.41317391,1.75507516 C2.9253056,1.75507516 2.51607299,1.43374437 2.40233684,1 L0.853565574,1 C0.382295072,1 0,1.36619189 0,1.81819367 L0,11.4675207 C0,11.9192619 0.382022977,12.2857141 0.853565574,12.2857141 L10.8035774,12.2857141 C11.274848,12.2857141 11.6571426,11.9195223 11.6571426,11.4675207 L11.6571426,1.81819367 C11.6571426,1.36645269 11.2751198,1 10.8035774,1 L9.11277199,1 Z" id="形状结合" fill="#26B384"></path>
                                <path d="M7.98187256,6.23901558 L6.24669862,6.23901558 L6.24669862,4.50384146 C6.24669862,4.22560902 6.02108955,4 5.74285722,4 C5.46462464,4 5.23901558,4.22560902 5.23901558,4.50384146 L5.23901558,6.23901558 L3.50384152,6.23901558 C3.22560905,6.23901558 3,6.46462464 3,6.74285722 C3,7.02108955 3.22560902,7.24669862 3.50384152,7.24669862 L5.23901558,7.24669862 L5.23901558,8.98187304 C5.23901558,9.26010513 5.46462464,9.48571444 5.74285722,9.48571444 C6.02108955,9.48571444 6.24669862,9.26010513 6.24669862,8.98187304 L6.24669862,7.24669862 L7.98187256,7.24669862 C8.26010513,7.24669862 8.48571444,7.02108955 8.48571444,6.74285722 C8.48571444,6.46462464 8.26010513,6.23901558 7.98187256,6.23901558 Z" id="路径" fill="#FFFFFF"></path>
                            </g>
                        </g>
                    </g>
                </g>
            </g>
        </g>
    </g>
</svg>