<?xml version="1.0" encoding="UTF-8"?>
<svg width="24px" height="24px" viewBox="0 0 24 24" version="1.1" xmlns="http://www.w3.org/2000/svg" xmlns:xlink="http://www.w3.org/1999/xlink">
    <title>icon_7</title>
    <defs>
        <path d="M1.71599996,0 L3.6400001,0.104000002 C3.55333328,0.407333344 3.42333341,0.853666663 3.25,1.44299996 L5.14799976,1.44299996 L5.14799976,3.1329999 L2.75600004,3.1329999 C2.47000003,4.10366678 2.21000004,4.95733356 1.97599995,5.69399977 L2.66499996,5.69399977 L2.66499996,3.73099995 L4.06899977,3.73099995 L4.06899977,5.69399977 L5.01800013,5.69399977 L5.01800013,7.39699984 L4.06899977,7.39699984 L4.06899977,8.28100014 C4.50233316,8.24633312 4.84033346,8.2159996 5.08300018,8.18999958 C5.04833317,8.81400013 5.02233315,9.4119997 5.00500011,9.98400021 C4.58900023,10.0186663 4.27699995,10.0489998 4.06899977,10.0749998 L4.06899977,12.2460003 L2.18400002,12.2460003 L2.18400002,10.257 C1.49933338,10.326333 0.810333312,10.3956671 0.116999999,10.4650002 L0,8.60599995 C0.59799999,8.57133293 1.32599998,8.51933289 2.18400002,8.44999981 L2.18400002,7.39699984 L0.169,7.39699984 L0.169,5.68100023 C0.402999997,4.91833353 0.645666659,4.06899977 0.897000015,3.1329999 L0.0390000008,3.1329999 L0.0390000008,1.44299996 L1.352,1.44299996 C1.47333336,0.96633333 1.59466672,0.485333323 1.71599996,0 Z M11.7779999,6.56500006 L11.7779999,8.398 L9.61999989,8.398 L9.61999989,10.036 L12.2720003,10.036 L12.2720003,11.882 L4.96600008,11.882 L4.96600008,10.036 L7.55299997,10.036 L7.55299997,8.398 L5.40800008,8.398 L5.40800008,6.56500006 L11.7779999,6.56500006 Z M11.388,0.59799999 L11.388,2.44399995 C11.0153332,2.97266668 10.6643333,3.4276666 10.335,3.80899996 C10.8983331,4.09499997 11.5916667,4.45900005 12.415,4.90099996 L11.2839999,6.43499988 C10.1659999,5.76766676 9.36433315,5.29966682 8.87900019,5.03100008 C8.14233327,5.50766653 7.09366655,5.96699995 5.73299998,6.40899986 C5.43833333,5.77633327 5.14366665,5.19566673 4.84899998,4.66699976 C6.01899993,4.34633321 6.91599989,4.01266664 7.53999996,3.66600007 C8.11199999,3.35400003 8.61899996,2.9379999 9.06099987,2.41800004 L5.49899995,2.41800004 L5.49899995,0.59799999 L11.388,0.59799999 Z" id="path-1"></path>
    </defs>
    <g id="页面-1" stroke="none" stroke-width="1" fill="none" fill-rule="evenodd">
        <g id="页面2（绿）" transform="translate(-45.000000, -586.000000)" fill="#26B384" fill-rule="nonzero">
            <g id="编组-17" transform="translate(0.000000, 18.000000)">
                <g id="预约咨询" transform="translate(17.000000, 366.000000)">
                    <g id="编组-8" transform="translate(12.000000, 66.000000)">
                        <g id="特定疾病" transform="translate(15.573898, 136.000000)">
                            <g id="医保-(1)">
                                <rect id="矩形" opacity="0.196056545" x="0.426101685" y="0" width="24" height="24"></rect>
                                <g id="轻" transform="translate(6.426102, 6.000000)">
                                    <g id="形状">
                                        <use xlink:href="#path-1"></use>
                                        <use xlink:href="#path-1"></use>
                                    </g>
                                </g>
                            </g>
                        </g>
                    </g>
                </g>
            </g>
        </g>
    </g>
</svg>