<?xml version="1.0" encoding="UTF-8"?>
<svg width="37px" height="36px" viewBox="0 0 37 36" version="1.1" xmlns="http://www.w3.org/2000/svg" xmlns:xlink="http://www.w3.org/1999/xlink">
    <title>icon_re2@2x</title>
    <g id="页面-1" stroke="none" stroke-width="1" fill="none" fill-rule="evenodd">
        <g id="页面2（绿）" transform="translate(-32.000000, -806.000000)" fill-rule="nonzero">
            <g id="编组-17" transform="translate(0.000000, 18.000000)">
                <g id="预约咨询" transform="translate(17.000000, 366.000000)">
                    <g id="编组-8" transform="translate(12.000000, 66.000000)">
                        <g id="编组-13" transform="translate(3.573898, 344.000000)">
                            <g id="选取组" transform="translate(0.000000, 12.000000)">
                                <g id="编组-11">
                                    <rect id="Mask" fill="#F0F9F2" x="0" y="0" width="36" height="36"></rect>
                                    <g id="minus-circle-fill" transform="translate(6.426102, 6.000000)">
                                        <rect x="0" y="0" width="24" height="24"></rect>
                                        <rect x="0" y="0" width="24" height="24"></rect>
                                        <rect x="0" y="0" width="24" height="24"></rect>
                                        <rect id="矩形" fill="#000000" opacity="0" x="0" y="0" width="24" height="24"></rect>
                                        <path d="M11.7333336,1 C17.6606255,1 22.4666672,5.80604172 22.4666672,11.7333336 C22.4666672,17.6606255 17.6606255,22.4666672 11.7333336,22.4666672 C5.80604172,22.4666672 1,17.6606255 1,11.7333336 C1,5.80604172 5.80604172,1 11.7333336,1 Z M16.1416664,10.9666672 L7.32499987,10.9666672 C7.21958321,10.9666672 7.13333321,11.0529172 7.13333321,11.1583338 L7.13333321,11.1583338 L7.13333321,12.3083339 C7.13333321,12.4137505 7.21958321,12.5000005 7.32499987,12.5000005 L7.32499987,12.5000005 L16.1416664,12.5000005 C16.2470827,12.5000005 16.333333,12.4137505 16.333333,12.3083339 L16.333333,12.3083339 L16.333333,11.1583338 C16.333333,11.0529172 16.2470827,10.9666672 16.1416664,10.9666672 L16.1416664,10.9666672 Z" id="形状" fill="#26B384" opacity="0.502999425"></path>
                                    </g>
                                </g>
                            </g>
                        </g>
                    </g>
                </g>
            </g>
        </g>
    </g>
</svg>