<?xml version="1.0" encoding="UTF-8"?>
<svg width="24px" height="24px" viewBox="0 0 24 24" version="1.1" xmlns="http://www.w3.org/2000/svg" xmlns:xlink="http://www.w3.org/1999/xlink">
    <title>icon_9</title>
    <defs>
        <path d="M6.70800018,0 L6.70800018,2.09299994 L11.2189999,2.09299994 L11.2189999,9.13899994 L9.06099987,9.13899994 L9.06099987,8.44999981 L6.70800018,8.44999981 L6.70800018,12.3500004 L4.49800014,12.3500004 L4.49800014,8.44999981 L2.15799999,8.44999981 L2.15799999,9.17800045 L0,9.17800045 L0,2.09299994 L4.49800014,2.09299994 L4.49800014,0 L6.70800018,0 Z M9.06100011,4.09499979 L6.70800018,4.09499979 L6.70800018,6.46099973 L9.06100011,6.46099973 L9.06100011,4.09499979 Z M4.49799991,4.09499979 L2.15799999,4.09499979 L2.15799999,6.46099973 L4.49799991,6.46099973 L4.49799991,4.09499979 Z" id="path-1"></path>
    </defs>
    <g id="页面-1" stroke="none" stroke-width="1" fill="none" fill-rule="evenodd">
        <g id="页面2（绿）" transform="translate(-45.000000, -666.000000)" fill="#26B384" fill-rule="nonzero">
            <g id="编组-17" transform="translate(0.000000, 18.000000)">
                <g id="预约咨询" transform="translate(17.000000, 366.000000)">
                    <g id="编组-8" transform="translate(12.000000, 66.000000)">
                        <g id="特定疾病" transform="translate(16.000000, 216.000000)">
                            <g id="医保-(1)">
                                <rect id="矩形" opacity="0.196056545" x="0" y="0" width="24" height="24"></rect>
                                <g id="中" transform="translate(6.000000, 6.000000)">
                                    <g id="形状">
                                        <use xlink:href="#path-1"></use>
                                        <use xlink:href="#path-1"></use>
                                    </g>
                                </g>
                            </g>
                        </g>
                    </g>
                </g>
            </g>
        </g>
    </g>
</svg>