<?xml version="1.0" encoding="UTF-8"?>
<svg width="21px" height="21px" viewBox="0 0 21 21" version="1.1" xmlns="http://www.w3.org/2000/svg" xmlns:xlink="http://www.w3.org/1999/xlink">
    <title>icon_more@2x</title>
    <g id="页面-1" stroke="none" stroke-width="1" fill="none" fill-rule="evenodd">
        <g id="页面1（绿）" transform="translate(-326.000000, -291.000000)" fill-rule="nonzero">
            <g id="预约咨询" transform="translate(6.000000, 150.000000)">
                <g id="编组-14" transform="translate(21.426102, 141.594208)">
                    <g id="详情按钮" transform="translate(309.094208, 10.500000) scale(1, -1) rotate(180.000000) translate(-309.094208, -10.500000) translate(298.594208, 0.000000)">
                        <rect transform="translate(10.010157, 10.202893) scale(1, -1) translate(-10.010157, -10.202893) " x="0" y="0" width="20.0203133" height="20.4057865"></rect>
                        <path d="M12.2285271,3.63793509 C12.5409465,3.32840493 13.0474787,3.32840493 13.3598976,3.63793509 C13.6482849,3.92365515 13.6704693,4.37324339 13.4264488,4.68417394 L13.3598976,4.75884294 L7.52621245,10.5392008 L13.3598976,16.3195581 C13.6482849,16.605279 13.6704693,17.0548668 13.4264488,17.365798 L13.3598976,17.4404678 C13.0715103,17.7261877 12.6177254,17.7481651 12.3038926,17.506402 L12.2285271,17.4404678 L5.82852712,11.0996542 C5.54013994,10.8139348 5.51795631,10.364346 5.76197621,10.0534158 L5.82852712,9.97874737 L12.2285271,3.63793509 Z" id="Path" fill="#AAAAAA"></path>
                    </g>
                </g>
            </g>
        </g>
    </g>
</svg>