<?xml version="1.0" encoding="UTF-8"?>
<svg width="24px" height="24px" viewBox="0 0 24 24" version="1.1" xmlns="http://www.w3.org/2000/svg" xmlns:xlink="http://www.w3.org/1999/xlink">
    <title>icon_5</title>
    <g id="页面-1" stroke="none" stroke-width="1" fill="none" fill-rule="evenodd">
        <g id="页面1（绿）" transform="translate(-44.000000, -526.000000)" fill-rule="nonzero">
            <g id="预约咨询" transform="translate(16.000000, 391.000000)">
                <g id="编组-8" transform="translate(12.000000, 79.000000)">
                    <g id="编组-6" transform="translate(16.000000, 56.000000)">
                        <g id="医保-(1)">
                            <rect id="矩形" fill="#26B384" opacity="0.196056545" x="0" y="0" width="24" height="24"></rect>
                            <g id="编组-5" transform="translate(5.426102, 4.000000)">
                                <rect x="0" y="0" width="14" height="15"></rect>
                                <rect x="0" y="0" width="14" height="15"></rect>
                                <rect x="0" y="0" width="14" height="15"></rect>
                                <path d="M7.68036652,1.32278776 L7.68036652,0.76455754 C7.68036652,0.281980753 7.39303827,0 7.03745604,0 C6.6818738,0 6.39454603,0.281980753 6.39454603,0.76455754 L6.39454603,1.31934893 C0.817519009,1.67812932 0.0909423009,6.86611652 0.000670648646,8.48922539 C-0.00599166378,8.6145277 0.0372119546,8.73715401 0.120113753,8.82824516 C0.203015551,8.91933632 0.31829384,8.97084713 0.438818425,8.97065544 L6.49472523,8.97065544 L6.49472523,13.3287487 C6.49472523,13.574049 6.30317354,13.7734985 6.06758642,13.7734985 C5.8319993,13.7734985 5.64044714,13.574049 5.64044714,13.3287487 L5.64044714,13.3127003 C5.64044714,12.9745531 5.37623739,12.6994495 5.05147982,12.6994495 C4.72672176,12.6994495 4.46251249,12.9745531 4.46251249,13.3127003 L4.46251249,13.3287487 C4.46251249,14.2503443 5.18248367,15 6.06758642,15 C6.95268869,15 7.67266035,14.2503443 7.67266035,13.3287487 L7.67266035,8.97065544 L13.5612345,8.97065544 C13.8122339,8.97065544 14.0125923,8.75171947 13.999382,8.49151802 C13.9179173,6.87528658 13.217762,1.7056396 7.68036652,1.32278776 L7.68036652,1.32278776 Z" id="形状" fill="#26B384"></path>
                                <path d="M4.72197509,3.83910292 C4.70747399,3.84289736 3.26193941,4.20242202 2.6452595,5.7638402 C2.60559434,5.86447811 2.53532898,5.94135094 2.44998094,5.97748232 C2.3646329,6.0136137 2.2712236,6.00603104 2.19038169,5.95640898 C2.02171056,5.85395861 1.95225774,5.59973001 2.03468527,5.39008641 C2.80477202,3.44068509 4.52430153,3.02329502 4.59757066,3.00716859 C4.7823863,2.96457592 4.96001768,3.11615024 4.99444389,3.34582371 C5.02802539,3.57538825 4.90591049,3.79641527 4.72197509,3.83910292 Z" id="路径" fill="#FFFFFF"></path>
                            </g>
                        </g>
                    </g>
                </g>
            </g>
        </g>
    </g>
</svg>