<?xml version="1.0" encoding="UTF-8"?>
<svg width="22px" height="22px" viewBox="0 0 22 22" version="1.1" xmlns="http://www.w3.org/2000/svg" xmlns:xlink="http://www.w3.org/1999/xlink">
    <title>icon_2@2x</title>
    <g id="页面-1" stroke="none" stroke-width="1" fill="none" fill-rule="evenodd">
        <g id="页面1（绿）" transform="translate(-28.000000, -404.000000)" fill-rule="nonzero">
            <g id="预约咨询" transform="translate(16.000000, 391.000000)">
                <g id="编组-9" transform="translate(12.000000, 12.000000)">
                    <g id="工作" transform="translate(0.000000, 1.000000)">
                        <rect x="0" y="0" width="22" height="22"></rect>
                        <g id="013_工作日志">
                            <rect x="0" y="0" width="22" height="22"></rect>
                            <rect id="矩形" x="0" y="0" width="22" height="22"></rect>
                            <path d="M5.16980362,0 L19.2901073,0 C21.0967021,0 21.9999995,0.903297603 21.9999995,2.70989275 L21.9999995,19.1914558 C21.9999995,20.9980507 21.0967021,21.9013481 19.2901073,21.9013481 L5.16980362,21.9013481 C3.36320847,21.9013481 2.45991087,20.9980507 2.45991087,19.1914558 L2.45991087,2.70989275 C2.45991087,0.903297603 3.36320847,0 5.16980362,0 Z" id="路径" fill="#26B384"></path>
                            <path d="M16.6871672,15.4257646 C17.1720562,15.4257646 17.5651369,15.8188449 17.5651369,16.3037341 C17.5651369,16.7886232 17.1720562,17.1817036 16.6871672,17.1817036 L7.77274394,17.1817036 C7.28785476,17.1817036 6.89477444,16.7886232 6.89477444,16.3037341 C6.89477444,15.8188449 7.28785476,15.4257646 7.77274394,15.4257646 L16.6871672,15.4257646 Z M16.6871672,10.0327969 C17.1720562,10.0327969 17.5651369,10.4258772 17.5651369,10.9107664 C17.5651369,11.3956555 17.1720562,11.7887359 16.6871672,11.7887359 L7.77274394,11.7887359 C7.28785476,11.7887359 6.89477444,11.3956555 6.89477444,10.9107664 C6.89477444,10.4258772 7.28785476,10.0327969 7.77274394,10.0327969 L16.6871672,10.0327969 Z M16.6871672,4.607903 C17.1720562,4.607903 17.5651369,5.00098336 17.5651369,5.48587251 C17.5651369,5.97076166 17.1720562,6.36384201 16.6871672,6.36384201 L7.77274392,6.36384201 C7.2878548,6.36384201 6.89477447,5.97076166 6.89477447,5.48587251 C6.89477447,5.00098336 7.2878548,4.607903 7.77274392,4.607903 L16.6871672,4.607903 Z" id="形状" fill="#FFFFFF"></path>
                            <path d="M1.37282503,4.11847496 L3.51985955,4.11847496 C4.43507624,4.11847496 4.89268446,4.5760833 4.89268446,5.49129999 L4.89268446,5.49129999 C4.89268446,6.40651679 4.43507624,6.86412501 3.51985955,6.86412501 L1.37282503,6.86412501 C0.457608342,6.86412501 0,6.40651679 0,5.49129999 L0,5.49129999 C0,4.5760833 0.457608342,4.11847496 1.37282503,4.11847496 Z" id="路径" fill="#FDBF03"></path>
                            <path d="M1.37282503,14.9414444 L3.51985955,14.9414444 C4.43507624,14.9414444 4.89268446,15.3990527 4.89268446,16.3142694 L4.89268446,16.3142694 C4.89268446,17.2294862 4.43507624,17.6870944 3.51985955,17.6870944 L1.37282503,17.6870944 C0.457608342,17.6870944 0,17.2294862 0,16.3142694 L0,16.3142694 C0,15.3990527 0.457608342,14.9414444 1.37282503,14.9414444 Z" id="路径" fill="#FDBF03"></path>
                        </g>
                    </g>
                </g>
            </g>
        </g>
    </g>
</svg>