<?xml version="1.0" encoding="UTF-8"?>
<svg width="22px" height="22px" viewBox="0 0 22 22" version="1.1" xmlns="http://www.w3.org/2000/svg" xmlns:xlink="http://www.w3.org/1999/xlink">
    <title>icon_1@2x</title>
    <g id="页面-1" stroke="none" stroke-width="1" fill="none" fill-rule="evenodd">
        <g id="页面1（绿）" transform="translate(-28.000000, -173.000000)" fill-rule="nonzero">
            <g id="预约咨询" transform="translate(6.000000, 150.000000)">
                <g id="013_联系人" transform="translate(21.426102, 23.000000)">
                    <rect id="矩形" x="0.573898315" y="0" width="22" height="22"></rect>
                    <g id="编组-4" transform="translate(0.573898, 0.000000)">
                        <path d="M10.3751402,19.2025089 L10.3751402,19.1295967 L10.3848085,19.0575066 C10.5069046,18.1488438 10.9430809,17.3246059 11.6463776,16.6727829 C12.1645956,16.1930962 12.8189983,15.8230534 13.5673208,15.5790987 C13.5562716,15.5612822 13.5443935,15.5420942 13.5316868,15.5220842 C13.0468931,14.756506 12.9538012,13.9322691 12.9399891,13.7741098 L12.938056,13.7530031 L12.938056,12.1681213 C12.9144258,11.9022636 12.9460163,11.6344223 13.0308714,11.3811626 C13.192193,10.883112 13.5280952,10.440156 14.0253201,10.0654526 L14.0327778,10.0596962 L14.0407887,10.0536661 L14.0487995,10.0479097 L14.0559816,10.0429764 L14.0659266,10.0361233 L14.0758715,10.0292711 C14.9694939,9.43144512 15.6053886,9.34839153 16.0592442,9.34400558 L16.0769234,9.34400558 L16.0769234,2.67746902 C16.0769234,1.1987437 14.868866,0 13.3786516,0 L2.69827127,0 C1.20805717,0 0,1.1987437 0,2.67746902 L0,16.7840691 C0,18.2627945 1.20805717,19.4615383 2.69827127,19.4615383 L10.3751402,19.4615383 L10.3751402,19.2025089 Z" id="路径" fill="#26B384"></path>
                        <path d="M8.98415065,13.7369423 C9.41244865,13.7369423 9.75965238,14.0713469 9.75965238,14.4838558 C9.75965238,14.8963648 9.41244865,15.2307694 8.98415065,15.2307694 L3.3139633,15.2307694 C3.0369032,15.2307694 2.78088907,15.0884086 2.642359,14.8573127 C2.50382893,14.6262168 2.50382893,14.3414949 2.642359,14.1103991 C2.78088907,13.8793032 3.0369032,13.7369423 3.3139633,13.7369423 L8.98415065,13.7369423 Z M10.0129598,8.98385572 C10.4412573,8.98385572 10.7884615,9.31826031 10.7884615,9.73076928 C10.7884615,10.1432782 10.4412573,10.4776828 10.0129598,10.4776828 L3.31396334,10.4776828 C2.88566549,10.4776828 2.53846149,10.1432782 2.53846149,9.73076928 C2.53846149,9.31826031 2.88566549,8.98385572 3.31396334,8.98385572 L10.0129598,8.98385572 Z M12.7629593,4.23076916 C13.1912573,4.23076916 13.5384615,4.56517375 13.5384615,4.97768271 C13.5384615,5.39019167 13.1912573,5.72459626 12.7629593,5.72459626 L3.31396334,5.72459626 C2.88566549,5.72459626 2.53846149,5.39019167 2.53846149,4.97768271 C2.53846149,4.56517375 2.88566549,4.23076916 3.31396334,4.23076916 L12.7629593,4.23076916 Z" id="形状" fill="#FFFFFF"></path>
                        <path d="M12.9395355,22 C11.8700491,22 11,21.1989355 11,20.2138014 L11,19.8114147 L11.0046381,19.7740297 C11.1083128,18.9604092 11.4809961,18.2201319 12.0820365,17.6336746 C12.6587954,17.0709038 13.4355371,16.6673756 14.3350515,16.4619012 C14.31408,16.4004645 14.2970362,16.3376374 14.2840328,16.2738352 C14.2622066,16.1739521 14.2351966,16.0498114 14.0338492,15.714489 C13.6142395,15.0153065 13.5397575,14.2356462 13.5318456,14.1491759 L13.5318456,12.4936824 C13.5026529,12.2368398 13.5094736,11.4894276 14.3907084,10.7902448 L14.3975294,10.7848226 L14.4100792,10.7756904 L14.4166272,10.7708389 C15.1748166,10.2360354 15.6814585,10.1589826 16.0770593,10.1538458 L16.0904279,10.1538458 C16.4863019,10.1589826 16.9929438,10.2360354 17.751133,10.7708389 L17.768867,10.7839664 L17.7767792,10.7902448 C18.658287,11.4894276 18.6651077,12.2354128 18.6356421,12.4936824 L18.6356421,14.1243477 L18.6337323,14.1488905 C18.6263661,14.2345047 18.5518837,15.0138793 18.1306372,15.714489 C17.9292898,16.0498114 17.9022799,16.1739521 17.8804536,16.2738352 C17.8673592,16.3386378 17.85004,16.4024267 17.8286161,16.4647551 C18.7322235,16.6733685 19.5097837,17.0840311 20.0835409,17.6567903 C20.6785793,18.2509527 21.0471706,19.0049286 21.1494808,19.8373842 L21.1538458,19.8736277 L21.1538458,20.2138014 C21.1538458,21.1989355 20.2837973,22 19.2143106,22 L12.9395355,22 Z" id="路径" fill="#FDBF03"></path>
                        <path d="M16.0875578,9.30769253 L16.0987673,9.31048156 C16.5713029,9.314944 17.2329674,9.39945154 18.1628046,10.0077385 L18.1628046,10.0077385 L18.173152,10.0147111 L18.1834993,10.0216836 L18.1860867,10.023357 L18.2001705,10.0331187 L18.2156916,10.0445537 C18.7330666,10.4258138 19.0825815,10.8765206 19.2504406,11.383287 C19.3387346,11.6409783 19.3716049,11.9135067 19.3470173,12.1840169 L19.3470173,12.1840169 L19.3470173,13.7207713 C19.3470173,13.7531238 19.3455801,13.7860346 19.3427057,13.818387 C19.3286219,13.9795928 19.2317581,14.8176956 18.7270308,15.597229 C18.7126589,15.6195412 18.6994371,15.6401801 18.6873646,15.6594243 C19.4717627,15.9107161 20.1561337,16.2967172 20.6944914,16.7953954 C21.4176655,17.4650412 21.8660574,18.3170891 21.9905148,19.2586651 L21.9905148,19.2586651 L22,19.3295059 L22,19.6965418 C22,20.3399706 21.6921616,20.9580193 21.155242,21.3925495 C20.6709213,21.7844086 20.0411615,22 19.3817968,22 L19.3817968,22 L12.7720487,22 C12.1126835,22 11.4829236,21.7830143 10.9986035,21.3925495 C10.4616837,20.9580193 10.1538458,20.3399706 10.1538458,19.6965418 L10.1538458,19.6965418 L10.1538458,19.2661953 L10.1639058,19.1928434 C10.2909501,18.2674446 10.7448025,17.4285049 11.4763128,16.7663894 C12.015532,16.2783098 12.6967421,15.9003963 13.4751034,15.6535673 C13.4638934,15.63516 13.451534,15.6159158 13.4383123,15.5955558 C12.933872,14.8165803 12.8367205,13.9773617 12.8223491,13.8169928 L12.8223491,13.8169928 L12.8206244,13.795517 L12.8206244,12.1815069 C12.7960372,11.9109967 12.8289073,11.6384683 12.917201,11.3807769 C13.0844855,10.8748473 13.4328511,10.4241403 13.9519503,10.0420436 L13.9519503,10.0420436 L13.9660344,10.0300508 L13.9801185,10.0202891 L13.9821305,10.0188946 L14.002538,10.0049495 C14.932375,9.39777812 15.5940399,9.31327058 16.0665751,9.30769253 L16.0665751,9.30769253 L16.0875578,9.30769253 Z M16.0838209,10.4227458 C15.7664977,10.4269294 15.3370768,10.4785264 14.6455196,10.9311856 C13.8605474,11.5090722 13.9605731,12.0738503 13.9677588,12.1095499 L13.9677588,12.1095499 L13.9677588,13.7202133 C13.9703459,13.7483824 14.033868,14.4180282 14.4115514,15.0014926 C14.7610666,15.5422851 14.7228383,15.6850835 14.7820491,15.8382012 L14.7820491,15.8382012 L14.7838458,15.8426925 L14.8003456,15.8741616 C14.8171224,15.9143371 14.8335267,15.9793527 14.8406803,16.0584853 L14.8444215,16.1419264 C14.8441168,16.3398343 14.6996511,16.5099188 14.4995049,16.5480086 C12.6113751,16.9036099 11.4860854,18.0214521 11.3050042,19.3403836 L11.3050042,19.3403836 L11.3050042,19.6965419 C11.3050042,20.350011 11.9658066,20.884389 12.7734858,20.884389 L12.7734858,20.884389 L19.381797,20.884389 C20.1891881,20.884389 20.850278,20.350011 20.850278,19.6965419 L20.850278,19.6965419 L20.850278,19.3997899 C20.6700593,18.0376283 19.556842,16.914766 17.678197,16.5535866 C17.4865829,16.5158569 17.3445731,16.3585378 17.3312684,16.1692587 C17.3200589,16.0183722 17.3470775,15.8903557 17.3807069,15.8432213 L17.3807069,15.8432213 L17.3678458,15.8736925 L17.3827187,15.8387591 C17.4367317,15.6973784 17.4093518,15.5656067 17.6734078,15.1289378 L17.7529289,15.0020505 C18.1314746,14.4180282 18.1944219,13.7467092 18.1967212,13.7207712 L18.1967212,13.7207712 L18.1967212,12.1087132 C18.2039071,12.0741292 18.3039328,11.5085144 17.5189606,10.9306278 C16.8271157,10.4785264 16.3976947,10.4263716 16.0838209,10.4227458 L16.0838209,10.4227458 Z" id="形状" fill="#FFFFFF"></path>
                    </g>
                </g>
            </g>
        </g>
    </g>
</svg>