<?xml version="1.0" encoding="UTF-8"?>
<svg width="13px" height="12px" viewBox="0 0 13 12" version="1.1" xmlns="http://www.w3.org/2000/svg" xmlns:xlink="http://www.w3.org/1999/xlink">
    <title>info-circle@2x</title>
    <g id="页面-1" stroke="none" stroke-width="1" fill="none" fill-rule="evenodd">
        <g id="页面1（绿）" transform="translate(-36.000000, -342.000000)" fill-rule="nonzero">
            <g id="预约咨询" transform="translate(6.000000, 150.000000)">
                <g id="编组-27" transform="translate(30.000000, 191.000000)">
                    <g id="info-circle" transform="translate(0.000000, 1.000000)">
                        <rect x="0" y="0" width="13" height="12"></rect>
                        <rect id="矩形" fill="#000000" opacity="0" x="0.426101685" y="0" width="11.9191923" height="12"></rect>
                        <path d="M6.38839102,0.75 C9.26678467,0.75 11.6006804,3.1007812 11.6006804,6 C11.6006804,8.89921856 9.26678467,11.25 6.38839102,11.25 C3.50999737,11.25 1.17610168,8.89921856 1.17610168,6 C1.17610168,3.1007812 3.50999737,0.75 6.38839102,0.75 Z M6.38839144,1.640625 C3.99864954,1.640625 2.06032938,3.5929687 2.06032938,6 C2.06032938,8.40703106 3.99864954,10.359375 6.38839144,10.359375 C8.77813286,10.359375 10.7164535,8.40703106 10.7164535,6 C10.7164535,3.5929687 8.77813286,1.640625 6.38839144,1.640625 Z M6.66762084,5.25 C6.718813,5.25 6.76069748,5.2921875 6.76069748,5.34375 L6.76069748,5.34375 L6.76069748,8.53125 C6.76069748,8.58281255 6.718813,8.625 6.66762084,8.625 L6.66762084,8.625 L6.10916127,8.625 C6.05796914,8.625 6.01608467,8.58281255 6.01608467,8.53125 L6.01608467,8.53125 L6.01608467,5.34375 C6.01608467,5.2921875 6.05796914,5.25 6.10916127,5.25 L6.10916127,5.25 Z M6.38839132,3.375 C6.69682008,3.375 6.9468509,3.62683982 6.9468509,3.9375 C6.9468509,4.24816018 6.69682008,4.5 6.38839132,4.5 C6.07996261,4.5 5.82993174,4.24816018 5.82993174,3.9375 C5.82993174,3.62683982 6.07996261,3.375 6.38839132,3.375 Z" id="形状" fill="rgba(45, 45, 45, .6)"></path>
                    </g>
                </g>
            </g>
        </g>
    </g>
</svg>