<?xml version="1.0" encoding="UTF-8"?>
<svg width="36px" height="36px" viewBox="0 0 36 36" version="1.1" xmlns="http://www.w3.org/2000/svg" xmlns:xlink="http://www.w3.org/1999/xlink">
    <title>btn_plus1</title>
    <defs>
        <linearGradient x1="50%" y1="0%" x2="50%" y2="100%" id="linearGradient-1">
            <stop stop-color="#2999E5" offset="0%"></stop>
            <stop stop-color="#D0EDFF" offset="100%"></stop>
        </linearGradient>
    </defs>
    <g id="页面-1" stroke="none" stroke-width="1" fill="none" fill-rule="evenodd">
        <g id="瑞享安康页面2" transform="translate(-307.000000, -751.000000)" fill-rule="nonzero">
            <g id="预约咨询" transform="translate(16.000000, 503.000000)">
                <g id="编组-13" transform="translate(16.000000, 233.000000)">
                    <g id="选取组" transform="translate(0.000000, 15.000000)">
                        <g id="编组-11" transform="translate(275.000000, 0.000000)">
                            <rect id="Mask" fill="#F1F7FF" x="0" y="0" width="36" height="36"></rect>
                            <g id="plus-circle-fill" transform="translate(1.000000, 1.000000)" fill="url(#linearGradient-1)" opacity="0.299479167" stroke="#FFFFFF">
                                <path d="M17,0.5 C21.5559146,0.5 25.6809073,2.34705505 28.6669262,5.33307389 C31.6529449,8.31909265 33.5,12.4440853 33.5,17 C33.5,21.5559146 31.6529449,25.6809072 28.6669261,28.6669261 C25.6809072,31.6529449 21.5559146,33.5 17,33.5 C12.4440853,33.5 8.31909265,31.6529449 5.33307389,28.6669262 C2.34705505,25.6809073 0.5,21.5559146 0.5,17 C0.5,12.4440852 2.347055,8.31909254 5.33307377,5.33307377 C8.31909254,2.347055 12.4440852,0.5 17,0.5 Z M18.3827145,9.14178112 L15.2857141,9.58420956 L15.2857141,15.3100896 L9.1417811,15.6172865 L9.58420958,18.7142859 L15.3100896,18.7142859 L15.6172865,24.8582185 L18.7142859,24.4157924 L18.7142859,18.6899105 L24.8582185,18.3827146 L24.4157924,15.2857141 L18.6899105,15.2857141 L18.3827145,9.14178112 Z" id="形状"></path>
                            </g>
                        </g>
                    </g>
                </g>
            </g>
        </g>
    </g>
</svg>