<?xml version="1.0" encoding="UTF-8"?>
<svg width="36px" height="36px" viewBox="0 0 36 36" version="1.1" xmlns="http://www.w3.org/2000/svg" xmlns:xlink="http://www.w3.org/1999/xlink">
    <title>btn_redu2</title>
    <defs>
        <linearGradient x1="50%" y1="0%" x2="50%" y2="100%" id="linearGradient-1">
            <stop stop-color="#2999E5" offset="0%"></stop>
            <stop stop-color="#D0EDFF" offset="100%"></stop>
        </linearGradient>
    </defs>
    <g id="页面-1" stroke="none" stroke-width="1" fill="none" fill-rule="evenodd">
        <g id="瑞享安康页面2" transform="translate(-32.000000, -751.000000)" fill-rule="nonzero">
            <g id="预约咨询" transform="translate(16.000000, 503.000000)">
                <g id="编组-13" transform="translate(16.000000, 233.000000)">
                    <g id="选取组" transform="translate(0.000000, 15.000000)">
                        <g id="编组-11">
                            <rect x="0" y="0" width="36" height="36"></rect>
                            <rect id="Mask" fill="#F1F9FF" x="0" y="0" width="36" height="36"></rect>
                            <g id="minus-circle-fill" transform="translate(1.000000, 1.000000)" fill="url(#linearGradient-1)" stroke="#FFFFFF">
                                <path d="M17,0.5 C21.5559146,0.5 25.6809073,2.34705505 28.6669262,5.33307389 C31.6529449,8.31909265 33.5,12.4440853 33.5,17 C33.5,21.5559146 31.6529449,25.6809072 28.6669261,28.6669261 C25.6809072,31.6529449 21.5559146,33.5 17,33.5 C12.4440853,33.5 8.31909265,31.6529449 5.33307389,28.6669262 C2.34705505,25.6809073 0.5,21.5559146 0.5,17 C0.5,12.4440852 2.347055,8.31909254 5.33307377,5.33307377 C8.31909254,2.347055 12.4440852,0.5 17,0.5 Z M24.4144589,15.2764037 L9.13951092,15.6014026 L9.5855388,18.7235977 L24.8604872,18.398599 L24.4144589,15.2764037 Z" id="形状"></path>
                            </g>
                        </g>
                    </g>
                </g>
            </g>
        </g>
    </g>
</svg>