<?xml version="1.0" encoding="UTF-8"?>
<svg width="14px" height="14px" viewBox="0 0 14 14" version="1.1" xmlns="http://www.w3.org/2000/svg" xmlns:xlink="http://www.w3.org/1999/xlink">
    <title>icon/menu</title>
    <g id="页面-1" stroke="none" stroke-width="1" fill="none" fill-rule="evenodd">
        <g id="瑞享安康页面3投保须知" transform="translate(-329.000000, -144.000000)" fill="#000000" fill-rule="nonzero">
            <g id="预约咨询" transform="translate(16.000000, 130.000000)">
                <g id="icon/menu" transform="translate(313.000000, 14.000000)">
                    <path d="M0.299685478,0.308565617 C0.699785233,-0.102151394 1.34913063,-0.102823734 1.75003958,0.307064533 L1.75003958,0.307064533 L6.90298999,5.57606247 L12.0577826,0.307063833 C12.4586915,-0.102824278 13.1080371,-0.102152191 13.5081366,0.308564976 C13.9082362,0.719282135 13.9075802,1.3845142 13.5066713,1.79440235 L8.32098999,7.09606247 L13.5066713,12.3977426 C13.876741,12.7761009 13.9057669,13.3720304 13.5933535,13.7845132 L13.5081366,13.88358 C13.1080371,14.2942972 12.4586915,14.2949693 12.0577826,13.8850811 L12.0577826,13.8850811 L6.90398999,8.61506247 L1.75003958,13.8850803 C1.34913063,14.2949686 0.699785233,14.2942963 0.299685478,13.8835793 C-0.100413799,13.4728622 -0.0997581482,12.8076301 0.301150799,12.3977423 L5.48598999,7.09606247 L0.301150799,1.7944026 C-0.0689189984,1.41604464 -0.0979445672,0.820115126 0.21446864,0.407632415 Z" id="cross"></path>
                </g>
            </g>
        </g>
    </g>
</svg>