<?xml version="1.0" encoding="UTF-8"?>
<svg width="20px" height="20px" viewBox="0 0 20 20" version="1.1" xmlns="http://www.w3.org/2000/svg" xmlns:xlink="http://www.w3.org/1999/xlink">
    <title>icon_head1</title>
    <defs>
        <linearGradient x1="50%" y1="0%" x2="50%" y2="100%" id="linearGradient-1">
            <stop stop-color="#F2AA41" offset="0%"></stop>
            <stop stop-color="#FFF0DB" offset="100%"></stop>
        </linearGradient>
        <circle id="path-2" cx="10" cy="10" r="10"></circle>
        <linearGradient x1="50%" y1="0%" x2="50%" y2="100%" id="linearGradient-4">
            <stop stop-color="#FFFFFF" offset="0%"></stop>
            <stop stop-color="#FFFFFF" stop-opacity="0.787614703" offset="100%"></stop>
        </linearGradient>
    </defs>
    <g id="页面-1" stroke="none" stroke-width="1" fill="none" fill-rule="evenodd">
        <g id="瑞享安康页面2" transform="translate(-28.000000, -184.000000)">
            <g id="预约咨询" transform="translate(16.000000, 172.000000)">
                <g id="编组-10" transform="translate(12.000000, 12.000000)">
                    <g id="编组-4">
                        <mask id="mask-3" fill="white">
                            <use xlink:href="#path-2"></use>
                        </mask>
                        <use id="椭圆形" fill="url(#linearGradient-1)" fill-rule="nonzero" xlink:href="#path-2"></use>
                        <g id="人像录入" mask="url(#mask-3)" fill-rule="nonzero">
                            <g transform="translate(3.000000, 4.000000)">
                                <rect id="人像录入" fill="none" x="0" y="0" width="14" height="15"></rect>
                                <rect id="人像录入" fill="none" x="0" y="0" width="14" height="15"></rect>
                                <path d="M11,4 C11,6.20913887 9.20913887,8 7,8 C4.79086101,8 3,6.20913887 3,4 C3,1.79086101 4.79086101,0 7,0 C9.20913887,0 11,1.79086101 11,4 Z" id="路径" fill="url(#linearGradient-4)"></path>
                                <path d="M6.22222233,9 L4.66666651,9 C2.08933783,9 0,11.0147185 0,13.5 L0,14.25 C0,14.6642137 0.348222971,15 0.777777791,15 L13.2222223,15 C13.6517773,15 14,14.6642137 14,14.25 L14,13.5 C14,11.0147185 11.9106617,9 9.33333302,9 L7.77777767,9 L7.77777767,11.25 C7.77777767,11.6642137 7.42955494,12 7,12 C6.57044506,12 6.22222233,11.6642137 6.22222233,11.25 L6.22222233,9 Z" id="路径" fill-opacity="0.772563398" fill="#FFFFFF"></path>
                            </g>
                        </g>
                    </g>
                </g>
            </g>
        </g>
    </g>
</svg>