<?xml version="1.0" encoding="UTF-8"?>
<svg width="20px" height="20px" viewBox="0 0 20 20" version="1.1" xmlns="http://www.w3.org/2000/svg" xmlns:xlink="http://www.w3.org/1999/xlink">
    <title>icon_tit1</title>
    <defs>
        <linearGradient x1="50%" y1="0%" x2="50%" y2="100%" id="linearGradient-1">
            <stop stop-color="#5AACE8" offset="0%"></stop>
            <stop stop-color="#2394E3" offset="100%"></stop>
        </linearGradient>
        <circle id="path-2" cx="10" cy="10" r="10"></circle>
    </defs>
    <g id="页面-1" stroke="none" stroke-width="1" fill="none" fill-rule="evenodd">
        <g id="瑞享安康页面1" transform="translate(-28.000000, -281.000000)">
            <g id="预约咨询" transform="translate(16.000000, 269.000000)">
                <g id="编组-10" transform="translate(12.000000, 12.000000)">
                    <g id="编组-15">
                        <mask id="mask-3" fill="white">
                            <use xlink:href="#path-2"></use>
                        </mask>
                        <use id="椭圆形" fill="url(#linearGradient-1)" fill-rule="nonzero" xlink:href="#path-2"></use>
                        <g id="编组-4" mask="url(#mask-3)" fill-rule="nonzero">
                            <g transform="translate(6.000000, 5.000000)">
                                <rect id="编组-4" fill="none" x="0" y="0" width="9" height="10"></rect>
                                <rect id="编组-4" fill="none" x="0" y="0" width="9" height="10"></rect>
                                <path d="M1.52811897,10 C0.685493231,10 0,9.39139938 0,8.64295292 L0,8.33724356 L0.00365424436,8.30884075 C0.0853373483,7.69070053 0.37896663,7.12828207 0.852513611,6.68272686 C1.30692971,6.25516748 1.91890812,5.94859076 2.62761641,5.79248333 C2.61109352,5.74580765 2.59766507,5.69807529 2.58741999,5.64960241 C2.57022333,5.57371712 2.5489428,5.47940207 2.39030552,5.22464418 C2.05970383,4.69344735 2.00102115,4.10110807 1.99478745,4.03541303 L1.99478745,2.777668 C1.97178721,2.58253431 1.97716105,2.01469517 2.6714673,1.48349795 L2.6768415,1.47937846 L2.68672919,1.47244036 L2.69188809,1.4687545 C3.28924966,1.06244278 3.68842196,1.00390267 4.00010729,1 L4.01064014,1 C4.32254124,1.00390267 4.72171354,1.06244278 5.31907463,1.4687545 L5.33304691,1.478728 L5.33928061,1.48349795 C6.03380203,2.01469517 6.03917599,2.58145022 6.01596069,2.777668 L6.01596069,4.01655006 L6.0144558,4.0351963 C6.00865221,4.10024071 5.94996929,4.69236302 5.61807775,5.22464418 C5.45944071,5.47940207 5.43815994,5.57371712 5.42096376,5.64960241 C5.41064692,5.69883537 5.39700127,5.74729824 5.38012218,5.79465151 C6.09205532,5.9531436 6.70467854,6.26514053 7.1567297,6.70028877 C7.62554741,7.15169811 7.91595268,7.72452354 7.99656105,8.35697365 L8,8.38450956 L8,8.64295292 C8,9.39139938 7.31450701,10 6.47188139,10 L1.52811897,10 Z" id="路径" fill="#FFFFFF"></path>
                            </g>
                        </g>
                    </g>
                </g>
            </g>
        </g>
    </g>
</svg>