<?xml version="1.0" encoding="UTF-8"?>
<svg width="20px" height="20px" viewBox="0 0 20 20" version="1.1" xmlns="http://www.w3.org/2000/svg" xmlns:xlink="http://www.w3.org/1999/xlink">
    <title>icon_more</title>
    <g id="页面-1" stroke="none" stroke-width="1" fill="none" fill-rule="evenodd">
        <g id="瑞享安康页面1" transform="translate(-327.000000, -399.000000)" fill-rule="nonzero">
            <g id="预约咨询" transform="translate(16.000000, 269.000000)">
                <g id="编组-14" transform="translate(10.000000, 130.000000)">
                    <g id="详情按钮" transform="translate(311.000000, 10.000000) scale(1, -1) rotate(180.000000) translate(-311.000000, -10.000000) translate(301.000000, 0.000000)">
                        <polygon id="Rectangle" transform="translate(10.000000, 10.000000) scale(1, -1) rotate(90.000000) translate(-10.000000, -10.000000) " points="6.67868521e-15 -1.23234756e-13 20 -1.23284453e-13 20 20 0 20"></polygon>
                        <path d="M12.6343145,3.23214762 C12.946734,2.92261746 13.4532661,2.92261746 13.7656851,3.23214762 C14.0540724,3.51786768 14.0762568,3.96745592 13.8322363,4.27838647 L13.7656851,4.35305548 L7.93199992,10.1334133 L13.7656851,15.9137707 C14.0540724,16.1994915 14.0762568,16.6490793 13.8322363,16.9600105 L13.7656851,17.0346804 C13.4772978,17.3204002 13.0235128,17.3423777 12.7096801,17.1006145 L12.6343145,17.0346804 L6.23431459,10.6938667 C5.9459274,10.4081473 5.92374378,9.95855856 6.16776368,9.64762831 L6.23431459,9.5729599 L12.6343145,3.23214762 Z" id="Path" fill="#AAAAAA"></path>
                    </g>
                </g>
            </g>
        </g>
    </g>
</svg>