<?xml version="1.0" encoding="UTF-8"?>
<svg width="20px" height="20px" viewBox="0 0 20 20" version="1.1" xmlns="http://www.w3.org/2000/svg" xmlns:xlink="http://www.w3.org/1999/xlink">
    <title>icon_mins</title>
    <g id="页面-1" stroke="none" stroke-width="1" fill="none" fill-rule="evenodd">
        <g id="瑞享安康页面1" transform="translate(-219.000000, -632.000000)" fill-rule="nonzero">
            <g id="预约咨询" transform="translate(16.000000, 460.000000)">
                <g id="编组-14" transform="translate(10.000000, 171.000000)">
                    <g id="金额" transform="translate(193.000000, 1.000000)">
                        <g id="minus-circle-fill">
                            <rect id="矩形" fill="#000000" opacity="0" x="0" y="0" width="20" height="20"></rect>
                            <path d="M10,0 C15.5223217,0 20,4.47767859 20,10 C20,15.5223217 15.5223217,20 10,20 C4.47767859,20 0,15.5223217 0,10 C0,4.47767859 4.47767859,0 10,0 Z M14.1071425,9.28571444 L5.89285698,9.28571444 C5.7946427,9.28571444 5.71428556,9.36607158 5.71428556,9.46428586 L5.71428556,9.46428586 L5.71428556,10.5357144 C5.71428556,10.6339287 5.7946427,10.7142858 5.89285698,10.7142858 L5.89285698,10.7142858 L14.1071425,10.7142858 C14.2053568,10.7142858 14.2857139,10.6339287 14.2857139,10.5357144 L14.2857139,10.5357144 L14.2857139,9.46428586 C14.2857139,9.36607158 14.2053568,9.28571444 14.1071425,9.28571444 L14.1071425,9.28571444 Z" id="形状" fill="#2897E2" opacity="0.502999425"></path>
                        </g>
                    </g>
                </g>
            </g>
        </g>
    </g>
</svg>