<?xml version="1.0" encoding="UTF-8"?>
<svg width="20px" height="20px" viewBox="0 0 20 20" version="1.1" xmlns="http://www.w3.org/2000/svg" xmlns:xlink="http://www.w3.org/1999/xlink">
    <title>icon_pluss2</title>
    <g id="页面-1" stroke="none" stroke-width="1" fill="none" fill-rule="evenodd">
        <g id="瑞享安康页面1" transform="translate(-325.000000, -632.000000)" fill-rule="nonzero">
            <g id="预约咨询" transform="translate(16.000000, 460.000000)">
                <g id="编组-14" transform="translate(10.000000, 171.000000)">
                    <g id="金额" transform="translate(193.000000, 1.000000)">
                        <g id="plus-circle-fill" transform="translate(106.000000, 0.000000)">
                            <path d="M10,0 C15.5223217,0 20,4.47767878 20,10 C20,15.5223217 15.5223217,20 10,20 C4.47767878,20 0,15.5223217 0,10 C0,4.47767878 4.47767878,0 10,0 Z M10.5357146,5.71428585 L9.46428585,5.71428585 C9.3660717,5.71428585 9.28571439,5.79464299 9.28571439,5.89285728 L9.28571439,5.89285728 L9.28571439,9.28571439 L5.89285728,9.28571439 C5.79464299,9.28571439 5.71428585,9.3660717 5.71428585,9.46428585 L5.71428585,9.46428585 L5.71428585,10.5357146 C5.71428585,10.6339288 5.79464299,10.7142859 5.89285728,10.7142859 L5.89285728,10.7142859 L9.28571439,10.7142859 L9.28571439,14.1071434 C9.28571439,14.2053576 9.3660717,14.2857141 9.46428585,14.2857141 L9.46428585,14.2857141 L10.5357146,14.2857141 C10.6339288,14.2857141 10.7142859,14.2053576 10.7142859,14.1071434 L10.7142859,14.1071434 L10.7142859,10.7142859 L14.1071434,10.7142859 C14.2053576,10.7142859 14.2857141,10.6339288 14.2857141,10.5357146 L14.2857141,10.5357146 L14.2857141,9.46428585 C14.2857141,9.3660717 14.2053576,9.28571439 14.1071434,9.28571439 L14.1071434,9.28571439 L10.7142859,9.28571439 L10.7142859,5.89285728 C10.7142859,5.79464299 10.6339288,5.71428585 10.5357146,5.71428585 L10.5357146,5.71428585 Z" id="形状" fill="#2897E2" opacity="0.502999425"></path>
                        </g>
                    </g>
                </g>
            </g>
        </g>
    </g>
</svg>