<?xml version="1.0" encoding="UTF-8"?>
<svg width="20px" height="20px" viewBox="0 0 20 20" version="1.1" xmlns="http://www.w3.org/2000/svg" xmlns:xlink="http://www.w3.org/1999/xlink">
    <title>icon_tit2</title>
    <defs>
        <linearGradient x1="50%" y1="0%" x2="50%" y2="100%" id="linearGradient-1">
            <stop stop-color="#5AACE8" offset="0%"></stop>
            <stop stop-color="#2394E3" offset="100%"></stop>
        </linearGradient>
        <circle id="path-2" cx="10" cy="10" r="10"></circle>
    </defs>
    <g id="页面-1" stroke="none" stroke-width="1" fill="none" fill-rule="evenodd">
        <g id="瑞享安康页面1" transform="translate(-28.000000, -472.000000)">
            <g id="预约咨询" transform="translate(16.000000, 460.000000)">
                <g id="编组-10" transform="translate(12.000000, 12.000000)">
                    <g id="编组-16">
                        <mask id="mask-3" fill="white">
                            <use xlink:href="#path-2"></use>
                        </mask>
                        <use id="椭圆形" fill="url(#linearGradient-1)" fill-rule="nonzero" xlink:href="#path-2"></use>
                        <g id="编组-4" mask="url(#mask-3)" fill-rule="nonzero">
                            <g transform="translate(4.000000, 5.000000)">
                                <rect x="0" y="0" width="12" height="13"></rect>
                                <rect x="0" y="0" width="12" height="13"></rect>
                            </g>
                        </g>
                        <g id="信息列表" mask="url(#mask-3)" fill="#FFFFFF" fill-rule="nonzero">
                            <g transform="translate(5.000000, 6.000000)" id="形状结合">
                                <path d="M1.70969665,6 C1.87002659,6 2,6.13162428 2,6.2939488 L2,7.70605123 C2,7.86839986 1.87001467,8 1.70970857,8 L0.290291399,8 C0.129973382,8 0,7.86839986 0,7.70605123 L0,6.2939488 C0,6.13161218 0.129985318,6 0.290291399,6 L1.70969665,6 Z M9.48652315,6 C9.77011728,6 10,6.23187685 10,6.51793087 L10,7.48206913 C10,7.76812315 9.77011728,8 9.48652315,8 L3.51347685,8 C3.22988279,8 3,7.76812315 3,7.48206913 L3,6.51793087 C3,6.23187685 3.22988279,6 3.51347685,6 L9.48652315,6 Z M1.70969665,3 C1.87002659,3 2,3.13161457 2,3.29394203 L2,4.70607007 C2,4.86840963 1.87001467,5 1.70970857,5 L0.290291399,5 C0.129973382,5 0,4.86839747 0,4.70607007 L0,3.29394203 C0,3.13157831 0.129985318,3 0.290291399,3 L1.70969665,3 Z M9.48652315,3 C9.77011728,3 10,3.23187685 10,3.51793087 L10,4.48206913 C10,4.76812315 9.77011728,5 9.48652315,5 L3.51347685,5 C3.22988279,5 3,4.76812315 3,4.48206913 L3,3.51793087 C3,3.23187685 3.22988279,3 3.51347685,3 L9.48652315,3 Z M1.70969665,0 C1.87002659,0 2,0.131612971 2,0.293926388 L2,1.70606148 C2,1.86839914 1.87001467,2 1.70970857,2 L0.290291399,2 C0.129973382,2 0,1.86839914 0,1.70607364 L0,0.293926388 C0,0.131588802 0.129985318,0 0.290291399,0 L1.70969665,0 Z M9.48652315,0 C9.77011728,0 10,0.231888682 10,0.517930865 L10,1.48206913 C10,1.76812315 9.77011728,2 9.48652315,2 L3.51347685,2 C3.22988279,2 3,1.76812315 3,1.48206913 L3,0.517930865 C3,0.231876865 3.22988279,0 3.51347685,0 L9.48652315,0 Z"></path>
                            </g>
                        </g>
                    </g>
                </g>
            </g>
        </g>
    </g>
</svg>