<?xml version="1.0" encoding="UTF-8"?>
<svg width="42px" height="23px" viewBox="0 0 42 23" version="1.1" xmlns="http://www.w3.org/2000/svg" xmlns:xlink="http://www.w3.org/1999/xlink">
    <title>img_Mask</title>
    <defs>
        <linearGradient x1="50%" y1="0%" x2="50%" y2="100%" id="linearGradient-1">
            <stop stop-color="#F1A738" offset="0%"></stop>
            <stop stop-color="#FFEEB9" offset="100%"></stop>
        </linearGradient>
    </defs>
    <g id="页面-1" stroke="none" stroke-width="1" fill="none" fill-rule="evenodd" fill-opacity="0.800000012">
        <g id="瑞享安康页面2" transform="translate(-58.000000, -736.000000)" fill="url(#linearGradient-1)" fill-rule="nonzero" stroke="#FFFFFF">
            <g id="预约咨询" transform="translate(16.000000, 503.000000)">
                <g id="编组-13" transform="translate(16.000000, 233.000000)">
                    <g id="编组-12" transform="translate(26.000000, 0.000000)">
                        <g id="标签">
                            <g id="编组-7">
                                <path d="M39,0.5 L3,0.5 C2.30964406,0.5 1.68464406,0.779822031 1.23223305,1.23223305 C0.779822031,1.68464406 0.5,2.30964406 0.5,3 L0.5,16 C0.5,16.6903559 0.779822031,17.3153559 1.23223305,17.767767 C1.68464406,18.220178 2.30964406,18.5 3,18.5 L16.0530182,18.5 L20.2993604,22.3087769 L24.0416366,18.5 L39,18.5 C39.6903559,18.5 40.3153559,18.220178 40.767767,17.767767 C41.220178,17.3153559 41.5,16.6903559 41.5,16 L41.5,3 C41.5,2.30964406 41.220178,1.68464406 40.767767,1.23223305 C40.3153559,0.779822031 39.6903559,0.5 39,0.5 Z" id="Mask"></path>
                            </g>
                        </g>
                    </g>
                </g>
            </g>
        </g>
    </g>
</svg>