<?xml version="1.0" encoding="UTF-8"?>
<svg width="12px" height="12px" viewBox="0 0 12 12" version="1.1" xmlns="http://www.w3.org/2000/svg" xmlns:xlink="http://www.w3.org/1999/xlink">
    <title>info-circle</title>
    <g id="页面-1" stroke="none" stroke-width="1" fill="none" fill-rule="evenodd">
        <g id="瑞享安康页面2" transform="translate(-36.000000, -813.000000)" fill-rule="nonzero">
            <g id="预约咨询" transform="translate(16.000000, 503.000000)">
                <g id="编组-10" transform="translate(12.000000, 300.000000)">
                    <g id="编组-27" transform="translate(8.000000, 8.000000)">
                        <g id="info-circle" transform="translate(0.000000, 2.000000)">
                            <rect id="矩形" fill="#000000" opacity="0" x="0" y="0" width="12" height="12"></rect>
                            <path d="M5.99999958,0.75 C8.89921805,0.75 11.25,3.1007812 11.25,6 C11.25,8.89921856 8.89921805,11.25 5.99999958,11.25 C3.10078112,11.25 0.75,8.89921856 0.75,6 C0.75,3.1007812 3.10078112,0.75 5.99999958,0.75 Z M6,1.640625 C3.59296863,1.640625 1.64062497,3.5929687 1.64062497,6 C1.64062497,8.40703106 3.59296863,10.359375 6,10.359375 C8.4070309,10.359375 10.359375,8.40703106 10.359375,6 C10.359375,3.5929687 8.4070309,1.640625 6,1.640625 Z M6.2812496,5.25 C6.33281213,5.25 6.37499964,5.2921875 6.37499964,5.34375 L6.37499964,5.34375 L6.37499964,8.53125 C6.37499964,8.58281255 6.33281213,8.625 6.2812496,8.625 L6.2812496,8.625 L5.71874965,8.625 C5.66718715,8.625 5.62499965,8.58281255 5.62499965,8.53125 L5.62499965,8.53125 L5.62499965,5.34375 C5.62499965,5.2921875 5.66718715,5.25 5.71874965,5.25 L5.71874965,5.25 Z M5.99999988,3.375 C6.31066009,3.375 6.56249985,3.62683982 6.56249985,3.9375 C6.56249985,4.24816018 6.31066009,4.5 5.99999988,4.5 C5.68933974,4.5 5.43749992,4.24816018 5.43749992,3.9375 C5.43749992,3.62683982 5.68933974,3.375 5.99999988,3.375 Z" id="形状" fill="#1085D5"></path>
                        </g>
                    </g>
                </g>
            </g>
        </g>
    </g>
</svg>